<svg width="168" height="23" viewBox="0 0 168 23" fill="none" xmlns="http://www.w3.org/2000/svg">
<path d="M7.11254 16.9339H13.3283V19.1836C13.3283 20.6382 12.155 21.8115 10.7004 21.8115H0.664062V3.61997C0.664062 2.31088 1.72103 1.25391 3.03012 1.25391H7.11254V16.9339Z" fill="white"/>
<path d="M21.6577 1.25391V12.8418C21.6577 13.7921 21.8613 14.5388 22.2783 15.0915C22.6953 15.6442 23.3643 15.9157 24.2953 15.9157C25.2262 15.9157 25.9146 15.6442 26.3607 15.0915C26.8068 14.5388 27.0298 13.7921 27.0298 12.8418V1.25391H33.4492V12.8418C33.4492 14.8006 33.0419 16.4685 32.2274 17.8551C31.4128 19.2418 30.2977 20.2794 28.8916 20.9775C27.4759 21.6757 25.905 22.0248 24.1595 22.0248C22.414 22.0248 20.8722 21.6757 19.5243 20.9775C18.1765 20.2794 17.1292 19.2418 16.3728 17.8745C15.6165 16.4975 15.2383 14.8297 15.2383 12.8515V1.25391H21.6577Z" fill="white"/>
<path d="M55.9558 21.8115H49.5073L42.6807 11.4745V21.8115H38.6758C37.3279 21.8115 36.2322 20.7157 36.2322 19.3678V1.25391H42.6807L49.5073 11.7654V1.25391H55.9558V21.8115Z" fill="white"/>
<path d="M72.0428 18.6977H65.1871L64.1689 21.8007H57.4004L64.9252 1.24316H72.3628L78.8501 19.0468C79.3349 20.385 78.3458 21.8007 76.9204 21.8007H73.061L72.0428 18.6977ZM70.4719 13.8492L68.6101 8.12801L66.7483 13.8492H70.4719Z" fill="white"/>
<path d="M91.6417 21.8115L87.7823 14.4321H87.7532V21.8115H81.3047V1.25391H90.8853C92.5532 1.25391 93.9689 1.54482 95.152 2.13633C96.335 2.72785 97.2174 3.53269 97.8089 4.55088C98.4004 5.56906 98.6913 6.7133 98.6913 7.9933C98.6913 9.37027 98.3132 10.5824 97.5471 11.6491C96.7811 12.7157 95.6853 13.4818 94.2501 13.9472L98.7204 21.8115H91.6417ZM87.7435 10.1363H90.3035C90.9241 10.1363 91.3895 10.0006 91.6998 9.71936C92.0101 9.43815 92.1653 9.00179 92.1653 8.40057C92.1653 7.85754 92.0101 7.43088 91.6901 7.12057C91.3701 6.81027 90.9144 6.65512 90.3132 6.65512H87.7532V10.1363H87.7435Z" fill="white"/>
<path d="M124.709 4.06603V21.8115H118.261V13.8018H112.132V21.8115H105.684V1.25391H112.132V8.66239H118.261V1.25391H121.897C123.448 1.25391 124.709 2.50481 124.709 4.06603Z" fill="white"/>
<path d="M132.301 20.6473C130.681 19.7358 129.401 18.4752 128.451 16.8752C127.501 15.2655 127.025 13.4619 127.025 11.4449C127.025 9.42793 127.501 7.62429 128.451 6.0146C129.401 4.4049 130.681 3.15399 132.301 2.25217C133.92 1.35036 135.694 0.904297 137.634 0.904297C139.573 0.904297 141.338 1.35036 142.948 2.25217C144.558 3.15399 145.828 4.4049 146.768 6.0146C147.709 7.62429 148.174 9.42793 148.174 11.4449C148.174 13.4619 147.709 15.2655 146.768 16.8752C145.828 18.4849 144.548 19.7358 142.938 20.6473C141.319 21.5588 139.554 22.0146 137.644 22.0146C135.694 22.0146 133.92 21.5588 132.301 20.6473ZM140.591 14.7613C141.29 13.937 141.639 12.8316 141.639 11.4352C141.639 10.0194 141.29 8.9043 140.591 8.08005C139.893 7.25581 138.904 6.84854 137.634 6.84854C136.334 6.84854 135.336 7.25581 134.647 8.08005C133.949 8.9043 133.6 10.0194 133.6 11.4352C133.6 12.8316 133.949 13.937 134.647 14.7613C135.345 15.5855 136.344 15.9928 137.634 15.9928C138.904 16.0025 139.893 15.5855 140.591 14.7613Z" fill="white"/>
<path d="M166.405 11.8333C165.803 12.8903 164.921 13.7242 163.748 14.3448C162.574 14.9654 161.159 15.2757 159.491 15.2757H156.931V21.8115H153.44C151.811 21.8115 150.482 20.4927 150.482 18.8539V1.25391H159.481C161.992 1.25391 163.932 1.89391 165.27 3.17391C166.618 4.45391 167.287 6.16057 167.287 8.3133C167.306 9.603 167.006 10.7763 166.405 11.8333ZM160.771 8.3036C160.771 7.043 160.102 6.41269 158.763 6.41269H156.931V10.1848H158.763C160.102 10.1945 160.771 9.56421 160.771 8.3036Z" fill="white"/>
</svg>
